<svg width="65" height="57" viewBox="0 0 65 57" fill="none" xmlns="http://www.w3.org/2000/svg">
<path fill-rule="evenodd" clip-rule="evenodd" d="M24.8544 0C11.3084 0 0.327148 10.9812 0.327148 24.5273C0.327148 38.0733 11.3084 49.0545 24.8544 49.0545H33.719C35.822 49.063 35.3145 50.8447 34.7807 52.7185C34.1871 54.8022 33.5611 57 36.4565 57C40.4868 57 51.525 48.1131 57.4204 41.5891C61.6958 37.1745 64.3271 31.1582 64.3271 24.5273C64.3271 10.9812 53.3459 0 39.7999 0H24.8544Z" fill="#F75C4D"/>
<rect x="18.9819" y="13.8184" width="26.2545" height="4.14545" rx="2.07273" fill="white"/>
<rect x="18.9814" y="22.1094" width="26.2545" height="4.14545" rx="2.07273" fill="white"/>
<rect x="18.9814" y="30.4004" width="26.2545" height="4.14545" rx="2.07273" fill="white"/>
</svg>
