<svg width="147" height="103" viewBox="0 0 147 103" fill="none" xmlns="http://www.w3.org/2000/svg">
<path d="M17.8439 0.000115064C15.7642 -0.00835166 13.7005 0.352543 11.7481 1.06825C8.28969 2.28534 5.43879 4.47478 3.20516 7.62704C1.0697 10.6769 -1.90735e-05 14.0811 -1.90735e-05 17.8419V84.6446C-1.90735e-05 89.524 1.73116 93.7463 5.18558 97.3028C8.74584 100.761 12.9681 102.488 17.8439 102.488C22.8289 102.488 27.0477 100.761 30.5058 97.3068C34.0661 93.7466 35.8417 89.524 35.8417 84.6446V72.4983C35.8796 69.8675 38.5889 70.5594 39.961 72.4983C42.5225 76.9372 48.5204 80.7364 54.2971 80.7364C60.0737 80.7364 65.8891 77.5817 68.6328 72.4983C69.6724 71.2735 72.6021 69.1835 72.9045 72.4983V84.6446C72.9045 89.524 74.6315 93.7463 78.0862 97.3028C81.6501 100.761 85.8668 102.488 90.7463 102.488C95.7276 102.488 99.9501 100.761 103.408 97.3068C106.969 93.7466 108.744 89.524 108.744 84.6446V17.8419C108.744 14.0811 107.627 10.6769 105.393 7.62704C103.253 4.47107 100.457 2.28534 97.0021 1.06825C94.9688 0.354131 92.9357 0.000115064 90.9024 0.000115064C85.4109 0.000115064 80.7841 2.13532 77.0196 6.40625L58.9122 27.5977C58.5077 27.9038 57.158 30.2345 54.2931 30.2345C51.4358 30.2345 50.2423 27.904 49.834 27.6016L31.5703 6.40625C27.9118 2.13532 23.3353 0.000115064 17.8439 0.000115064ZM130.686 0.00196816C126.415 0.00196816 122.754 1.5273 119.705 4.57611C116.757 7.52412 115.283 11.1333 115.283 15.4043C115.283 19.6752 116.757 23.336 119.705 26.3848C122.754 29.3328 126.415 30.8068 130.686 30.8068C134.957 30.8068 138.617 29.3328 141.668 26.3848C144.717 23.336 146.24 19.6752 146.24 15.4043C146.24 11.1333 144.717 7.52412 141.668 4.57611C138.617 1.5273 134.957 0.00196816 130.686 0.00196816ZM130.836 33.8593C126.565 33.8593 122.904 35.3849 119.856 38.4337C116.807 41.4849 115.283 45.1452 115.283 49.4161V87.0861C115.283 91.3568 116.807 95.0176 119.856 98.0664C122.907 101.015 126.568 102.488 130.836 102.488C135.11 102.488 138.72 101.015 141.668 98.0664C144.717 95.0176 146.24 91.3568 146.24 87.0861V49.4161C146.24 45.1428 144.717 41.4825 141.668 38.4337C138.718 35.3849 135.107 33.8593 130.836 33.8593Z" fill="white"/>
</svg>
