<svg width="34" height="24" viewBox="0 0 34 24" fill="none" xmlns="http://www.w3.org/2000/svg">
<path d="M20.4757 14.3374C19.9424 12.5712 20.1796 10.8942 21.1454 9.61363C21.6765 8.90797 22.3925 8.38703 23.2112 8.06533C22.9131 7.19571 22.51 6.35099 21.9768 5.53533C20.1985 2.82684 17.8031 1.10004 14.7904 0.357025C11.7756 -0.385994 8.82585 0.0311757 5.93911 1.60438C3.05238 3.17967 1.19227 5.62042 0.356693 8.93288C-0.199659 11.1391 -0.105183 13.2644 0.640119 15.3087C1.38332 17.3531 2.50652 19.0363 4.01392 20.3584C5.51713 21.6804 7.19038 22.5687 9.03369 23.0233C10.8749 23.4778 12.7602 23.4965 14.6875 23.0772C16.6169 22.658 18.4056 21.7074 20.0537 20.2235C20.9627 19.4057 21.6933 18.4531 22.2749 17.3884C21.4897 16.498 20.82 15.4727 20.4757 14.3374Z" fill="#FCCC0A"/>
<path d="M9.3699 8.43483C8.71278 8.46181 8.20891 9.20898 8.2488 10.1035C8.28659 10.998 8.85134 11.7016 9.50846 11.6746C10.1677 11.6477 10.6695 10.9005 10.6317 10.006C10.5918 9.11144 10.0291 8.40785 9.3699 8.43483Z" fill="#010101"/>
<path d="M17.524 8.76916C16.8627 8.65085 16.172 8.8667 15.687 9.33991C15.5086 9.51425 15.5044 9.79859 15.6807 9.97709C15.8571 10.1535 16.1468 10.1577 16.3273 9.98331C16.6045 9.71557 16.9908 9.59312 17.3687 9.65746C17.7508 9.72388 18.0678 9.96256 18.2378 10.3112C18.3176 10.4731 18.4793 10.5665 18.6493 10.5665C18.7165 10.5665 18.7837 10.552 18.8467 10.5209C19.0734 10.4129 19.1679 10.1431 19.0608 9.91897C18.7627 9.31501 18.1895 8.88538 17.524 8.76916Z" fill="#010101"/>
<path d="M9.30216 6.32822C9.46172 6.4403 9.68216 6.39879 9.79553 6.24313C9.9068 6.08539 9.86901 5.86747 9.70735 5.75539C9.27487 5.45652 8.72271 5.3818 8.22724 5.55199C7.73387 5.72426 7.34967 6.1269 7.20271 6.62709C7.14812 6.81181 7.2552 7.0069 7.44415 7.06086C7.47774 7.07124 7.51133 7.07539 7.54282 7.07539C7.69608 7.07539 7.83674 6.97577 7.88293 6.82426C7.96691 6.53992 8.18315 6.31162 8.46238 6.21407C8.7479 6.11237 9.05232 6.15596 9.30216 6.32822Z" fill="#010101"/>
<path d="M19.5813 6.62725C19.4343 6.12499 19.0522 5.72442 18.5567 5.55008C18.0634 5.38197 17.5112 5.45669 17.0766 5.75348C16.9171 5.86556 16.8793 6.08141 16.9906 6.24122C17.1039 6.39895 17.3223 6.43839 17.4839 6.32631C17.7338 6.15405 18.0382 6.11046 18.3216 6.21008C18.6008 6.30556 18.8171 6.53593 18.901 6.82027C18.9451 6.97386 19.0879 7.07348 19.2412 7.07348C19.2747 7.07348 19.3062 7.06933 19.3398 7.05895C19.5288 7.00707 19.6379 6.81405 19.5813 6.62725Z" fill="#010101"/>
<path d="M15.9593 14.7444C16.1231 14.6281 16.2637 14.4911 16.3603 14.3313C16.4905 14.1155 16.5241 13.881 16.4548 13.6527C16.3582 13.3351 16.1273 13.0798 15.783 12.9179C15.1027 12.5921 13.9627 12.644 12.9466 13.0487C12.7115 13.1421 12.6002 13.4036 12.6926 13.6361C12.785 13.8685 13.0516 13.9785 13.2846 13.8872C14.053 13.5821 14.9369 13.5157 15.3841 13.7315C15.5457 13.8083 15.5688 13.883 15.5772 13.8685C15.5373 13.9744 15.1447 14.2483 14.4267 14.4019C14.2 14.4496 14.0467 14.6593 14.0698 14.8896C14.0929 15.1179 14.2861 15.2923 14.5191 15.2923C15.0692 15.2985 15.4492 15.45 15.5898 15.6306C15.5856 15.6596 15.5709 15.7427 15.4324 15.8402C15.1132 16.0602 14.3364 16.191 13.3161 15.9917C13.0705 15.9398 12.829 16.1017 12.7808 16.3466C12.7304 16.5915 12.892 16.8281 13.1398 16.8759C13.5387 16.9547 13.925 16.9942 14.284 16.9942C14.9705 16.9942 15.5604 16.853 15.9551 16.5811C16.2553 16.3757 16.4401 16.0976 16.4926 15.7738C16.5367 15.5019 16.4569 15.23 16.2679 15.0079C16.184 14.9062 16.0811 14.8191 15.9593 14.7444Z" fill="#010101"/>
<path d="M28.0122 12.4116C28.0122 12.4116 28.409 9.51221 30.9053 9.51221C32.927 9.51221 34.5898 11.1975 33.7983 13.823C32.8116 17.0898 28.0122 19.545 28.0122 19.545C28.0122 19.545 23.2108 17.0898 22.2241 13.823C21.4326 11.1975 23.0974 9.51221 25.1192 9.51221C27.6154 9.51221 28.0122 12.4116 28.0122 12.4116Z" fill="#D55E9D"/>
</svg>
