<svg width="24" height="24" viewBox="0 0 24 24" fill="none" xmlns="http://www.w3.org/2000/svg">
<path d="M12.0202 11.269C12.4116 11.3445 12.6072 11.6722 12.6072 12C12.6072 12.3278 12.4116 12.6555 12.0202 12.731L2.11186 14.6393C1.93501 14.6752 1.77237 14.7067 1.62322 14.7356C0.286932 14.9934 0.00177557 15.0487 0.00177557 16.3802C0.00177557 16.3923 0.00106534 16.4033 0 16.4136V22.5113C0 23.6067 1.10653 24.3259 2.06108 23.8513L23.1857 13.34C23.7287 13.0697 24 12.5347 24 12C24 11.4653 23.7287 10.9303 23.1857 10.66L2.06108 0.148694C1.10653 -0.325915 0 0.393322 0 1.48866V7.58643C0.00106534 7.59668 0.00177557 7.60767 0.00177557 7.61976C0.00177557 8.9513 0.286932 9.00659 1.62322 9.26441C1.77237 9.29334 1.93501 9.32483 2.11186 9.36072L12.0202 11.269Z" fill="#EFEBE5"/>
</svg>
